<?xml version="1.0" standalone="no"?>
<!DOCTYPE svg PUBLIC "-//W3C//DTD SVG 20010904//EN"
 "http://www.w3.org/TR/2001/REC-SVG-20010904/DTD/svg10.dtd">
<svg version="1.0" xmlns="http://www.w3.org/2000/svg"
 width="100.000000pt" height="100.000000pt" viewBox="0 0 200.000000 200.000000"
 preserveAspectRatio="xMidYMid meet">

<g transform="translate(0.000000,200.000000) scale(0.100000,-0.100000)"
fill="#000000" stroke="none">
<path d="M950 1411 c-74 -24 -147 -86 -182 -156 -12 -22 -23 -68 -26 -102 l-5
-63 54 25 c30 14 62 25 72 25 46 0 145 -85 133 -115 -5 -14 -14 -10 -52 24
-26 23 -50 41 -54 41 -4 0 -10 -23 -14 -51 -5 -39 -2 -67 15 -118 12 -36 24
-69 28 -73 3 -4 25 -11 48 -16 l41 -9 55 76 c67 94 73 106 81 156 l7 40 -44
-3 c-38 -3 -50 1 -78 26 -26 24 -31 33 -22 43 9 9 19 6 43 -15 35 -29 48 -31
84 -15 37 17 73 3 131 -52 32 -31 56 -46 60 -39 12 20 10 124 -3 171 -19 65
-78 137 -141 172 -44 25 -67 31 -130 33 -42 2 -87 0 -101 -5z m-17 -159 c23
-20 22 -57 -3 -82 -43 -43 -104 -11 -98 51 5 54 56 70 101 31z m314 -8 c20
-31 10 -71 -22 -86 -55 -25 -111 24 -87 77 22 47 80 52 109 9z"/>
<path d="M870 1225 c-13 -15 -6 -35 13 -35 7 0 13 11 13 25 2 28 -8 32 -26 10z"/>
<path d="M1177 1234 c-15 -16 -6 -31 18 -31 19 0 25 4 23 16 -3 17 -29 26 -41
15z"/>
<path d="M793 1077 c-47 -23 -51 -33 -28 -78 13 -25 19 -28 35 -19 24 13 35
34 44 83 8 43 6 43 -51 14z"/>
<path d="M1187 1083 c-3 -5 -8 -27 -12 -49 -5 -34 -1 -52 20 -94 l27 -52 27
26 c16 15 34 38 41 52 13 23 11 28 -35 74 -49 50 -60 57 -68 43z"/>
<path d="M823 953 c-20 -7 -15 -27 12 -53 17 -16 25 -19 25 -9 -1 27 -25 66
-37 62z"/>
<path d="M1101 891 c-22 -33 -41 -61 -41 -64 0 -3 16 -1 36 3 40 9 94 30 94
37 0 7 -40 83 -44 83 -2 0 -22 -27 -45 -59z"/>
<path d="M1350 782 l0 -60 -41 5 c-67 9 -109 -28 -109 -96 0 -73 109 -110 161
-55 23 24 24 33 24 142 0 103 -2 117 -17 120 -16 3 -18 -5 -18 -56z m-18 -109
c37 -33 11 -83 -43 -83 -22 0 -32 7 -41 25 -26 57 37 101 84 58z"/>
<path d="M586 808 c-9 -12 -16 -35 -16 -50 0 -18 -5 -28 -15 -28 -8 0 -15 -9
-15 -20 0 -11 7 -20 15 -20 12 0 15 -14 15 -70 0 -63 2 -70 20 -70 18 0 20 7
20 70 0 63 2 70 20 70 13 0 20 7 20 20 0 13 -7 20 -20 20 -15 0 -20 7 -20 25
0 14 8 29 20 35 11 6 20 17 20 25 0 24 -47 18 -64 -7z"/>
<path d="M676 708 c-11 -15 -16 -45 -16 -90 0 -61 2 -68 20 -68 18 0 20 7 20
66 0 57 3 67 20 71 11 3 20 14 20 24 0 27 -45 25 -64 -3z"/>
<path d="M760 640 c0 -83 1 -90 20 -90 19 0 20 7 20 90 0 83 -1 90 -20 90 -19
0 -20 -7 -20 -90z"/>
<path d="M846 699 c-33 -39 -33 -79 0 -118 34 -40 98 -44 132 -8 12 13 22 26
22 30 0 11 -35 8 -47 -4 -14 -14 -75 -8 -81 9 -2 8 11 12 46 12 68 0 82 7 82
40 0 38 -41 70 -90 70 -30 0 -44 -6 -64 -31z m98 -15 c31 -12 16 -24 -29 -24
-42 0 -54 7 -38 23 8 9 46 9 67 1z"/>
<path d="M1050 710 c-16 -16 -20 -33 -20 -90 0 -63 2 -70 20 -70 17 0 19 8 22
68 3 62 5 67 27 70 32 5 41 -12 41 -80 0 -51 2 -58 20 -58 18 0 20 7 20 64 0
49 -5 69 -21 90 -26 33 -79 36 -109 6z"/>
<path d="M1421 716 c-23 -28 -9 -70 29 -87 48 -23 46 -45 -2 -42 -31 2 -38 -1
-38 -16 0 -24 53 -35 89 -18 21 10 26 19 26 47 0 30 -5 38 -35 52 -45 23 -46
43 -2 42 25 -2 32 2 32 17 0 16 -7 19 -44 19 -26 0 -48 -6 -55 -14z"/>
</g>
</svg>
