<?xml version="1.0" standalone="no"?>
<!DOCTYPE svg PUBLIC "-//W3C//DTD SVG 20010904//EN"
 "http://www.w3.org/TR/2001/REC-SVG-20010904/DTD/svg10.dtd">
<svg version="1.0" xmlns="http://www.w3.org/2000/svg"
 width="700.000000pt" height="700.000000pt" viewBox="0 0 700.000000 700.000000"
 preserveAspectRatio="xMidYMid meet">

<g transform="translate(0.000000,700.000000) scale(0.100000,-0.100000)"
fill="#000000" stroke="none">
<path d="M2636 5849 c-342 -117 -650 -312 -916 -578 -388 -391 -630 -896 -689
-1443 -14 -122 -14 -395 -1 -513 62 -560 309 -1070 709 -1465 383 -378 850
-605 1401 -681 140 -20 488 -17 630 4 559 85 1018 320 1405 718 229 236 391
484 508 779 161 403 210 850 141 1277 -13 77 -20 100 -30 96 -8 -3 -12 -9 -9
-14 13 -20 17 -450 6 -545 -15 -126 -41 -201 -79 -231 -25 -21 -78 -16 -105
10 -27 25 -72 164 -65 202 4 16 1 22 -9 18 -7 -3 -13 -9 -13 -14 0 -5 -5 -9
-10 -9 -6 0 -41 -14 -77 -31 -86 -40 -128 -47 -137 -23 -9 24 0 32 111 89 53
28 98 56 101 63 3 9 -21 12 -98 12 -87 0 -106 3 -131 21 -16 11 -29 27 -29 35
0 23 49 82 94 114 23 15 53 39 68 53 26 24 26 25 11 68 -13 37 -24 89 -36 159
-2 9 -6 20 -9 25 -3 6 -9 26 -13 45 -7 37 -78 253 -100 305 -7 17 -20 75 -29
130 -37 220 -71 322 -147 440 -89 138 -250 294 -455 441 -279 199 -645 339
-1034 395 -166 24 -490 31 -785 18 -117 -6 -135 -5 -111 6 27 11 28 13 10 23
-18 11 -18 11 1 12 24 1 77 29 55 30 -8 0 -69 -18 -134 -41z m-1052 -1885 c19
-19 21 -48 4 -61 -7 -6 -31 -16 -53 -23 -92 -29 -111 -45 -128 -107 -11 -36
-13 -61 -7 -67 6 -6 45 -3 107 8 137 24 143 24 149 14 10 -16 -23 -43 -73 -57
-26 -8 -55 -18 -63 -22 -31 -17 -93 -39 -110 -39 -39 0 -48 -29 -60 -200 -13
-179 -27 -230 -59 -230 -24 0 -27 26 -11 109 18 97 31 307 20 335 -8 21 -6 35
9 64 11 21 22 56 26 77 18 105 45 155 90 168 11 3 43 14 70 25 63 25 70 26 89
6z m2616 -22 c0 -10 -7 -27 -15 -40 -30 -41 -47 -110 -81 -317 -19 -119 -28
-145 -50 -145 -19 0 -108 72 -172 139 -57 61 -65 52 -80 -98 -7 -67 -24 -90
-56 -78 -21 8 -22 95 0 219 21 121 35 162 57 166 20 4 57 -24 57 -43 0 -16 75
-115 108 -142 15 -12 33 -22 40 -23 15 0 41 58 66 145 27 91 76 213 93 230 17
18 33 11 33 -13z m450 -77 c106 -6 165 -27 217 -81 54 -56 58 -162 7 -215 -25
-26 -122 -79 -145 -79 -6 0 -49 -12 -95 -26 -77 -23 -84 -27 -78 -48 7 -29
-25 -70 -48 -61 -33 13 -50 113 -30 170 6 17 15 48 21 70 18 74 32 130 42 161
5 17 9 44 9 61 0 38 26 67 49 57 9 -4 32 -8 51 -9z m-2408 -23 c18 -18 20 -26
12 -63 -8 -36 -20 -52 -81 -103 -39 -34 -71 -67 -70 -74 2 -15 129 -62 168
-62 34 0 57 -26 42 -48 -18 -29 -66 -36 -125 -19 -107 31 -174 47 -202 50 -28
2 -30 -1 -43 -58 -8 -33 -18 -94 -21 -135 -6 -60 -10 -75 -24 -78 -12 -2 -22
6 -29 25 -13 32 5 192 40 348 10 50 23 117 28 149 9 67 30 89 62 69 16 -10 28
-9 63 8 57 26 149 22 180 -9z m511 6 c13 -20 -6 -153 -30 -208 -8 -19 -17 -74
-20 -123 -3 -48 -10 -90 -14 -93 -5 -3 -19 -2 -30 1 -18 6 -20 13 -17 63 3 32
14 102 25 157 12 55 24 123 28 150 4 28 8 56 11 63 5 18 34 12 47 -10z m615
-15 c17 -32 -3 -61 -50 -73 -66 -17 -112 -43 -116 -64 -3 -16 0 -18 19 -11 13
4 73 9 132 12 l109 5 -4 -23 c-2 -20 -12 -25 -60 -35 -31 -6 -69 -15 -85 -21
-15 -6 -46 -16 -68 -23 -56 -18 -75 -37 -75 -78 0 -29 3 -33 18 -27 9 4 33 12
52 17 19 5 62 19 94 30 65 21 83 14 64 -26 -9 -22 -87 -71 -136 -86 -15 -5
-51 -17 -81 -28 -43 -16 -60 -18 -79 -9 -22 10 -23 15 -18 71 4 34 6 79 6 101
0 41 48 190 73 228 9 14 37 28 78 38 85 23 116 23 127 2z m-868 -242 c0 -34
-6 -40 -31 -34 -24 7 -36 48 -19 68 18 22 50 1 50 -34z m453 6 c12 -37 3 -57
-25 -57 -17 0 -27 9 -35 30 -10 27 -9 32 10 45 28 19 39 15 50 -18z m1351 27
c20 -8 21 -51 2 -70 -13 -12 -17 -11 -30 8 -32 45 -16 79 28 62z m812 -28 c3
-19 3 -39 -1 -45 -12 -21 -44 -11 -60 18 -14 28 -14 31 7 45 34 24 46 19 54
-18z"/>
<path d="M4620 3756 c0 -14 -4 -34 -9 -44 -15 -27 -44 -133 -38 -138 2 -3 16
1 31 7 22 10 29 9 46 -6 24 -22 55 -17 134 21 82 39 94 82 37 131 -16 13 -40
23 -61 23 -35 0 -91 12 -122 25 -15 6 -18 2 -18 -19z"/>
<path d="M2130 3783 c-8 -3 -40 -21 -70 -40 -49 -29 -56 -38 -58 -68 -2 -19 0
-35 2 -35 25 0 170 125 162 139 -8 12 -13 12 -36 4z"/>
<path d="M5776 4123 c-6 -14 -5 -15 5 -6 7 7 10 15 7 18 -3 3 -9 -2 -12 -12z"/>
<path d="M5780 4081 c0 -12 5 -21 10 -21 6 0 10 6 10 14 0 8 -4 18 -10 21 -5
3 -10 -3 -10 -14z"/>
<path d="M5470 3733 c-84 -54 -100 -67 -100 -80 0 -10 6 -13 18 -8 9 3 39 9
66 12 38 5 44 8 31 16 -14 8 -15 11 -4 18 11 7 10 9 -3 9 -24 0 -23 8 5 31 27
22 21 24 -13 2z"/>
</g>
</svg>
